<svg width="1200" height="630" viewBox="0 0 1200 630" fill="none" xmlns="http://www.w3.org/2000/svg">
  <defs>
    <linearGradient id="bg" x1="0" y1="0" x2="1200" y2="630" gradientUnits="userSpaceOnUse">
      <stop stop-color="#9cbc1e"/>
      <stop offset="1" stop-color="#7f9f13"/>
    </linearGradient>
    <pattern id="grid" width="22" height="22" patternUnits="userSpaceOnUse">
      <rect width="22" height="22" fill="none"/>
      <path d="M22 0H0V22" stroke="#6f8b15" stroke-width="1"/>
    </pattern>
  </defs>
  <rect width="1200" height="630" fill="url(#bg)"/>
  <rect width="1200" height="630" fill="url(#grid)" opacity="0.34"/>

  <rect x="84" y="60" width="1032" height="510" rx="24" fill="#8fb01a" stroke="#26400C" stroke-width="14"/>
  <rect x="122" y="98" width="956" height="434" rx="12" fill="#96B91C" stroke="#28430D" stroke-width="8"/>
  <rect x="170" y="132" width="860" height="104" rx="8" fill="#98BC1D" stroke="#28430D" stroke-width="6"/>
  <text x="200" y="188" fill="#1C2A09" font-family="'Press Start 2P', monospace" font-size="42">MONOSNAKE BASE</text>
  <text x="200" y="224" fill="#1F300A" font-family="'VT323', monospace" font-size="36">Retro Snake on Base</text>

  <rect x="170" y="272" width="860" height="208" fill="#92B318" stroke="#26400C" stroke-width="8"/>
  <rect x="230" y="320" width="42" height="42" fill="#2D67C2"/>
  <rect x="272" y="320" width="42" height="42" fill="#2A5EAB"/>
  <rect x="314" y="320" width="42" height="42" fill="#245393"/>
  <rect x="356" y="320" width="42" height="42" fill="#1F4A87"/>

  <rect x="746" y="380" width="42" height="42" fill="#3992EE"/>
  <rect x="788" y="380" width="42" height="42" fill="#6AB7FF"/>
  <rect x="980" y="530" width="120" height="18" fill="#1E3408" opacity="0.24"/>
</svg>
